<svg width="128" height="117" viewBox="0 0 128 117" fill="none" xmlns="http://www.w3.org/2000/svg">
<g opacity="0.67" filter="url(#filter0_f_1_218)">
<path d="M71.4554 46.7693C75.706 50.6054 85.681 54.6732 81.8449 58.9238C78.0088 63.1744 56.0823 75.3166 46.9528 70.6233C42.7022 66.7871 50.761 54.4353 54.5971 50.1847C58.4333 45.9341 67.2048 42.9332 71.4554 46.7693Z" fill="url(#paint0_linear_1_218)" fill-opacity="0.3"/>
</g>
<g filter="url(#filter1_ii_1_218)">
<path fill-rule="evenodd" clip-rule="evenodd" d="M64.8776 63.3356V63.336H56.5315C52.3772 63.336 49.0096 59.9683 49.0096 55.8141C49.0096 51.6599 52.3772 48.2922 56.5315 48.2922H56.9436C58.4017 48.2922 59.7679 48.6855 60.9419 49.3719C62.4681 44.8501 66.7445 41.5943 71.7812 41.5943H72.348C78.3516 41.5943 83.2186 46.4613 83.2186 52.465C83.2186 58.4687 78.3516 63.3356 72.3479 63.3356H64.8776Z" fill="white"/>
</g>
<path d="M74.6337 65.7388L74.9346 67.1356C75.1008 67.907 74.6265 68.7284 73.8754 68.9703C73.1242 69.2121 72.3806 68.7827 72.2144 68.0113C72.0483 67.2399 72.5225 66.4185 73.2737 66.1766L74.6337 65.7388Z" fill="url(#paint1_radial_1_218)"/>
<path d="M66.6337 65.7388L66.9346 67.1356C67.1008 67.907 66.6265 68.7284 65.8754 68.9703C65.1242 69.2121 64.3806 68.7827 64.2144 68.0113C64.0483 67.2399 64.5225 66.4185 65.2737 66.1766L66.6337 65.7388Z" fill="url(#paint2_radial_1_218)"/>
<path d="M58.6337 65.7388L58.9346 67.1356C59.1008 67.907 58.6265 68.7284 57.8754 68.9703C57.1242 69.2121 56.3806 68.7827 56.2144 68.0113C56.0483 67.2399 56.5225 66.4185 57.2737 66.1766L58.6337 65.7388Z" fill="url(#paint3_radial_1_218)"/>
<path d="M50.9824 65.7388L51.2832 67.1356C51.4494 67.907 50.9752 68.7284 50.224 68.9703C49.4728 69.2121 48.7292 68.7827 48.563 68.0113C48.3969 67.2399 48.8711 66.4185 49.6223 66.1766L50.9824 65.7388Z" fill="url(#paint4_radial_1_218)"/>
<path d="M54.9824 70.7388L55.2832 72.1356C55.4494 72.907 54.9752 73.7284 54.224 73.9703C53.4728 74.2121 52.7292 73.7827 52.563 73.0113C52.3969 72.2399 52.8711 71.4185 53.6223 71.1766L54.9824 70.7388Z" fill="url(#paint5_radial_1_218)"/>
<path d="M61.9824 70.7388L62.2832 72.1356C62.4494 72.907 61.9752 73.7284 61.224 73.9703C60.4728 74.2121 59.7292 73.7827 59.563 73.0113C59.3969 72.2399 59.8711 71.4185 60.6223 71.1766L61.9824 70.7388Z" fill="url(#paint6_radial_1_218)"/>
<path d="M68.9824 70.7388L69.2832 72.1356C69.4494 72.907 68.9752 73.7284 68.224 73.9703C67.4728 74.2121 66.7292 73.7827 66.563 73.0113C66.3969 72.2399 66.8711 71.4185 67.6223 71.1766L68.9824 70.7388Z" fill="url(#paint7_radial_1_218)"/>
<defs>
<filter id="filter0_f_1_218" x="0.747314" y="0.00373459" width="126.959" height="116.681" filterUnits="userSpaceOnUse" color-interpolation-filters="sRGB">
<feFlood flood-opacity="0" result="BackgroundImageFix"/>
<feBlend mode="normal" in="SourceGraphic" in2="BackgroundImageFix" result="shape"/>
<feGaussianBlur stdDeviation="22.5" result="effect1_foregroundBlur_1_218"/>
</filter>
<filter id="filter1_ii_1_218" x="31.0096" y="26.5943" width="60.209" height="47.7417" filterUnits="userSpaceOnUse" color-interpolation-filters="sRGB">
<feFlood flood-opacity="0" result="BackgroundImageFix"/>
<feBlend mode="normal" in="SourceGraphic" in2="BackgroundImageFix" result="shape"/>
<feColorMatrix in="SourceAlpha" type="matrix" values="0 0 0 0 0 0 0 0 0 0 0 0 0 0 0 0 0 0 127 0" result="hardAlpha"/>
<feOffset dx="8" dy="-15"/>
<feGaussianBlur stdDeviation="15"/>
<feComposite in2="hardAlpha" operator="arithmetic" k2="-1" k3="1"/>
<feColorMatrix type="matrix" values="0 0 0 0 0 0 0 0 0 0 0 0 0 0 0 0 0 0 0.2 0"/>
<feBlend mode="normal" in2="shape" result="effect1_innerShadow_1_218"/>
<feColorMatrix in="SourceAlpha" type="matrix" values="0 0 0 0 0 0 0 0 0 0 0 0 0 0 0 0 0 0 127 0" result="hardAlpha"/>
<feOffset dx="-18" dy="11"/>
<feGaussianBlur stdDeviation="15"/>
<feComposite in2="hardAlpha" operator="arithmetic" k2="-1" k3="1"/>
<feColorMatrix type="matrix" values="0 0 0 0 1 0 0 0 0 1 0 0 0 0 1 0 0 0 1 0"/>
<feBlend mode="normal" in2="effect1_innerShadow_1_218" result="effect2_innerShadow_1_218"/>
</filter>
<linearGradient id="paint0_linear_1_218" x1="51.467" y1="72.5028" x2="76.1569" y2="44.7942" gradientUnits="userSpaceOnUse">
<stop stop-color="#254659"/>
<stop offset="1" stop-color="#023553"/>
</linearGradient>
<radialGradient id="paint1_radial_1_218" cx="0" cy="0" r="1" gradientUnits="userSpaceOnUse" gradientTransform="translate(72.1208 68.4639) rotate(-34.1445) scale(3.73169 2.74928)">
<stop stop-color="#008CB9"/>
<stop offset="1" stop-color="#5CC4E5"/>
</radialGradient>
<radialGradient id="paint2_radial_1_218" cx="0" cy="0" r="1" gradientUnits="userSpaceOnUse" gradientTransform="translate(64.1208 68.4639) rotate(-34.1445) scale(3.73169 2.74928)">
<stop stop-color="#008CB9"/>
<stop offset="1" stop-color="#5CC4E5"/>
</radialGradient>
<radialGradient id="paint3_radial_1_218" cx="0" cy="0" r="1" gradientUnits="userSpaceOnUse" gradientTransform="translate(56.1208 68.4639) rotate(-34.1445) scale(3.73169 2.74928)">
<stop stop-color="#008CB9"/>
<stop offset="1" stop-color="#5CC4E5"/>
</radialGradient>
<radialGradient id="paint4_radial_1_218" cx="0" cy="0" r="1" gradientUnits="userSpaceOnUse" gradientTransform="translate(48.4695 68.4639) rotate(-34.1445) scale(3.73169 2.74928)">
<stop stop-color="#008CB9"/>
<stop offset="1" stop-color="#5CC4E5"/>
</radialGradient>
<radialGradient id="paint5_radial_1_218" cx="0" cy="0" r="1" gradientUnits="userSpaceOnUse" gradientTransform="translate(52.4695 73.4639) rotate(-34.1445) scale(3.73169 2.74928)">
<stop stop-color="#008CB9"/>
<stop offset="1" stop-color="#5CC4E5"/>
</radialGradient>
<radialGradient id="paint6_radial_1_218" cx="0" cy="0" r="1" gradientUnits="userSpaceOnUse" gradientTransform="translate(59.4695 73.4639) rotate(-34.1445) scale(3.73169 2.74928)">
<stop stop-color="#008CB9"/>
<stop offset="1" stop-color="#5CC4E5"/>
</radialGradient>
<radialGradient id="paint7_radial_1_218" cx="0" cy="0" r="1" gradientUnits="userSpaceOnUse" gradientTransform="translate(66.4695 73.4639) rotate(-34.1445) scale(3.73169 2.74928)">
<stop stop-color="#008CB9"/>
<stop offset="1" stop-color="#5CC4E5"/>
</radialGradient>
</defs>
</svg>
