<svg width="108" height="96" viewBox="0 0 108 96" fill="none" xmlns="http://www.w3.org/2000/svg">
<g filter="url(#filter0_bi_16_321)">
<path fill-rule="evenodd" clip-rule="evenodd" d="M77 30C77 30.7882 76.9696 31.5693 76.9099 32.3422C80.1949 29.6296 84.4071 28 89 28C99.4934 28 108 36.5066 108 47C108 57.158 100.029 65.4541 90 65.9741V66H89H19H17V65.896C7.44667 64.8966 0 56.8179 0 47C0 37.1618 7.47752 29.07 17.0593 28.0979C18.0405 12.4156 31.0704 0 47 0C63.5685 0 77 13.4315 77 30Z" fill="url(#paint0_linear_16_321)"/>
</g>
<path fill-rule="evenodd" clip-rule="evenodd" d="M41 41C42.3807 41 43.5 42.1193 43.5 43.5L43.5 58.5C43.5 59.8807 42.3807 61 41 61C39.6193 61 38.5 59.8807 38.5 58.5L38.5 43.5C38.5 42.1193 39.6193 41 41 41ZM67 46C68.3807 46 69.5 47.1193 69.5 48.5V76.5C69.5 77.8807 68.3807 79 67 79C65.6193 79 64.5 77.8807 64.5 76.5V48.5C64.5 47.1193 65.6193 46 67 46ZM54 53C55.3807 53 56.5 54.1193 56.5 55.5V64.5C56.5 65.8807 55.3807 67 54 67C52.6193 67 51.5 65.8807 51.5 64.5V55.5C51.5 54.1193 52.6193 53 54 53ZM54 73C55.3807 73 56.5 74.1193 56.5 75.5V93.5C56.5 94.8807 55.3807 96 54 96C52.6193 96 51.5 94.8807 51.5 93.5V75.5C51.5 74.1193 52.6193 73 54 73ZM69.5 86.5C69.5 85.1193 68.3807 84 67 84C65.6193 84 64.5 85.1193 64.5 86.5V93.5C64.5 94.8807 65.6193 96 67 96C68.3807 96 69.5 94.8807 69.5 93.5V86.5ZM82.5 60.5C82.5 59.1193 81.3807 58 80 58C78.6193 58 77.5 59.1193 77.5 60.5V67.5C77.5 68.8807 78.6193 70 80 70C81.3807 70 82.5 68.8807 82.5 67.5V60.5ZM80 76C81.3807 76 82.5 77.1193 82.5 78.5V93.5C82.5 94.8807 81.3807 96 80 96C78.6193 96 77.5 94.8807 77.5 93.5V78.5C77.5 77.1193 78.6193 76 80 76ZM43.5 68.5C43.5 67.1193 42.3807 66 41 66C39.6193 66 38.5 67.1193 38.5 68.5V75.5C38.5 76.8807 39.6193 78 41 78C42.3807 78 43.5 76.8807 43.5 75.5V68.5ZM43.5 86.5C43.5 85.1193 42.3807 84 41 84C39.6193 84 38.5 85.1193 38.5 86.5V93.5C38.5 94.8807 39.6193 96 41 96C42.3807 96 43.5 94.8807 43.5 93.5V86.5ZM27 51C28.3807 51 29.5 52.1193 29.5 53.5L29.5 61.5C29.5 62.8807 28.3807 64 27 64C25.6193 64 24.5 62.8807 24.5 61.5V53.5C24.5 52.1193 25.6193 51 27 51ZM29.5 73.5C29.5 72.1193 28.3807 71 27 71C25.6193 71 24.5 72.1193 24.5 73.5V93.5C24.5 94.8807 25.6193 96 27 96C28.3807 96 29.5 94.8807 29.5 93.5L29.5 73.5Z" fill="url(#paint1_linear_16_321)"/>
<path fill-rule="evenodd" clip-rule="evenodd" d="M56.0002 66H51.9998C51.686 65.5822 51.5 65.0628 51.5 64.5V55.5C51.5 54.1193 52.6193 53 54 53C55.3807 53 56.5 54.1193 56.5 55.5V64.5C56.5 65.0628 56.314 65.5822 56.0002 66ZM69.5 66H64.5V48.5C64.5 47.1193 65.6193 46 67 46C68.3807 46 69.5 47.1193 69.5 48.5V66ZM82.5 66H77.5V60.5C77.5 59.1193 78.6193 58 80 58C81.3807 58 82.5 59.1193 82.5 60.5V66ZM43.5 43.5C43.5 42.1193 42.3807 41 41 41C39.6193 41 38.5 42.1193 38.5 43.5L38.5 58.5C38.5 59.8807 39.6193 61 41 61C42.3807 61 43.5 59.8807 43.5 58.5L43.5 43.5ZM29.5 53.5C29.5 52.1193 28.3807 51 27 51C25.6193 51 24.5 52.1193 24.5 53.5V61.5C24.5 62.8807 25.6193 64 27 64C28.3807 64 29.5 62.8807 29.5 61.5L29.5 53.5Z" fill="#E0F3FE"/>
<defs>
<filter id="filter0_bi_16_321" x="-7" y="-7" width="122" height="80" filterUnits="userSpaceOnUse" color-interpolation-filters="sRGB">
<feFlood flood-opacity="0" result="BackgroundImageFix"/>
<feGaussianBlur in="BackgroundImageFix" stdDeviation="3.5"/>
<feComposite in2="SourceAlpha" operator="in" result="effect1_backgroundBlur_16_321"/>
<feBlend mode="normal" in="SourceGraphic" in2="effect1_backgroundBlur_16_321" result="shape"/>
<feColorMatrix in="SourceAlpha" type="matrix" values="0 0 0 0 0 0 0 0 0 0 0 0 0 0 0 0 0 0 127 0" result="hardAlpha"/>
<feOffset dy="2"/>
<feGaussianBlur stdDeviation="4"/>
<feComposite in2="hardAlpha" operator="arithmetic" k2="-1" k3="1"/>
<feColorMatrix type="matrix" values="0 0 0 0 0 0 0 0 0 0.82 0 0 0 0 1 0 0 0 0.25 0"/>
<feBlend mode="normal" in2="shape" result="effect2_innerShadow_16_321"/>
</filter>
<linearGradient id="paint0_linear_16_321" x1="56" y1="89.5" x2="96.5" y2="1.95655e-07" gradientUnits="userSpaceOnUse">
<stop stop-color="#0082DF"/>
<stop offset="0.299998" stop-color="#48B2FF" stop-opacity="0.75"/>
<stop offset="1" stop-color="#3BADFF" stop-opacity="0"/>
</linearGradient>
<linearGradient id="paint1_linear_16_321" x1="53.5" y1="41" x2="53.5" y2="96" gradientUnits="userSpaceOnUse">
<stop offset="0.168182" stop-color="#D7F0FF"/>
<stop offset="1" stop-color="#0072DC"/>
</linearGradient>
</defs>
</svg>
