<svg width="126" height="113" viewBox="0 0 126 113" fill="none" xmlns="http://www.w3.org/2000/svg">
<g filter="url(#filter0_ddi_1_549)">
<circle cx="84" cy="42" r="26" fill="url(#paint0_linear_1_549)"/>
</g>
<g filter="url(#filter1_bi_1_549)">
<path fill-rule="evenodd" clip-rule="evenodd" d="M77 51C77 51.7882 76.9696 52.5693 76.9099 53.3422C80.1949 50.6296 84.4071 49 89 49C99.4934 49 108 57.5066 108 68C108 78.158 100.029 86.4541 90 86.9741V87H89H19H17V86.896C7.44667 85.8966 0 77.8179 0 68C0 58.1618 7.47752 50.07 17.0593 49.0979C18.0405 33.4156 31.0704 21 47 21C63.5685 21 77 34.4315 77 51Z" fill="url(#paint1_linear_1_549)"/>
</g>
<path fill-rule="evenodd" clip-rule="evenodd" d="M33.2648 68.6324C33.2648 70.6385 31.6385 72.2648 29.6324 72.2648C27.6263 72.2648 26 70.6385 26 68.6324C26 66.6263 27.6263 65 29.6324 65C31.6385 65 33.2648 66.6263 33.2648 68.6324ZM33.2648 81.8972C33.2648 83.9033 31.6385 85.5295 29.6324 85.5295C27.6263 85.5295 26 83.9033 26 81.8972C26 79.891 27.6263 78.2648 29.6324 78.2648C31.6385 78.2648 33.2648 79.891 33.2648 81.8972ZM29.6324 98.7943C31.6385 98.7943 33.2648 97.168 33.2648 95.1619C33.2648 93.1558 31.6385 91.5295 29.6324 91.5295C27.6263 91.5295 26 93.1558 26 95.1619C26 97.168 27.6263 98.7943 29.6324 98.7943ZM33.2648 108.427C33.2648 110.433 31.6385 112.059 29.6324 112.059C27.6263 112.059 26 110.433 26 108.427C26 106.421 27.6263 104.794 29.6324 104.794C31.6385 104.794 33.2648 106.421 33.2648 108.427ZM45.897 72.2648C47.9032 72.2648 49.5294 70.6385 49.5294 68.6324C49.5294 66.6263 47.9032 65 45.897 65C43.8909 65 42.2646 66.6263 42.2646 68.6324C42.2646 70.6385 43.8909 72.2648 45.897 72.2648ZM49.5294 81.8972C49.5294 83.9033 47.9032 85.5295 45.897 85.5295C43.8909 85.5295 42.2646 83.9033 42.2646 81.8972C42.2646 79.891 43.8909 78.2648 45.897 78.2648C47.9032 78.2648 49.5294 79.891 49.5294 81.8972ZM45.897 98.7943C47.9032 98.7943 49.5294 97.168 49.5294 95.1619C49.5294 93.1558 47.9032 91.5295 45.897 91.5295C43.8909 91.5295 42.2646 93.1558 42.2646 95.1619C42.2646 97.168 43.8909 98.7943 45.897 98.7943ZM49.5294 108.427C49.5294 110.433 47.9032 112.059 45.897 112.059C43.8909 112.059 42.2646 110.433 42.2646 108.427C42.2646 106.421 43.8909 104.794 45.897 104.794C47.9032 104.794 49.5294 106.421 49.5294 108.427ZM62.1619 72.2648C64.168 72.2648 65.7943 70.6385 65.7943 68.6324C65.7943 66.6263 64.168 65 62.1619 65C60.1558 65 58.5295 66.6263 58.5295 68.6324C58.5295 70.6385 60.1558 72.2648 62.1619 72.2648ZM65.7943 81.8972C65.7943 83.9033 64.168 85.5295 62.1619 85.5295C60.1558 85.5295 58.5295 83.9033 58.5295 81.8972C58.5295 79.891 60.1558 78.2648 62.1619 78.2648C64.168 78.2648 65.7943 79.891 65.7943 81.8972ZM62.1619 98.7943C64.168 98.7943 65.7943 97.168 65.7943 95.1619C65.7943 93.1558 64.168 91.5295 62.1619 91.5295C60.1558 91.5295 58.5295 93.1558 58.5295 95.1619C58.5295 97.168 60.1558 98.7943 62.1619 98.7943ZM65.7943 108.427C65.7943 110.433 64.168 112.059 62.1619 112.059C60.1558 112.059 58.5295 110.433 58.5295 108.427C58.5295 106.421 60.1558 104.794 62.1619 104.794C64.168 104.794 65.7943 106.421 65.7943 108.427ZM78.4267 72.2648C80.4328 72.2648 82.0591 70.6385 82.0591 68.6324C82.0591 66.6263 80.4328 65 78.4267 65C76.4206 65 74.7943 66.6263 74.7943 68.6324C74.7943 70.6385 76.4206 72.2648 78.4267 72.2648ZM82.0591 81.8972C82.0591 83.9033 80.4328 85.5295 78.4267 85.5295C76.4206 85.5295 74.7943 83.9033 74.7943 81.8972C74.7943 79.891 76.4206 78.2648 78.4267 78.2648C80.4328 78.2648 82.0591 79.891 82.0591 81.8972ZM78.4267 98.7943C80.4328 98.7943 82.0591 97.168 82.0591 95.1619C82.0591 93.1558 80.4328 91.5295 78.4267 91.5295C76.4206 91.5295 74.7943 93.1558 74.7943 95.1619C74.7943 97.168 76.4206 98.7943 78.4267 98.7943ZM82.0591 108.427C82.0591 110.433 80.4328 112.059 78.4267 112.059C76.4206 112.059 74.7943 110.433 74.7943 108.427C74.7943 106.421 76.4206 104.794 78.4267 104.794C80.4328 104.794 82.0591 106.421 82.0591 108.427Z" fill="url(#paint2_linear_1_549)"/>
<defs>
<filter id="filter0_ddi_1_549" x="42" y="0" width="84" height="84" filterUnits="userSpaceOnUse" color-interpolation-filters="sRGB">
<feFlood flood-opacity="0" result="BackgroundImageFix"/>
<feColorMatrix in="SourceAlpha" type="matrix" values="0 0 0 0 0 0 0 0 0 0 0 0 0 0 0 0 0 0 127 0" result="hardAlpha"/>
<feOffset/>
<feGaussianBlur stdDeviation="8"/>
<feComposite in2="hardAlpha" operator="out"/>
<feColorMatrix type="matrix" values="0 0 0 0 0.992157 0 0 0 0 0.773882 0 0 0 0 0 0 0 0 1 0"/>
<feBlend mode="normal" in2="BackgroundImageFix" result="effect1_dropShadow_1_549"/>
<feColorMatrix in="SourceAlpha" type="matrix" values="0 0 0 0 0 0 0 0 0 0 0 0 0 0 0 0 0 0 127 0" result="hardAlpha"/>
<feOffset/>
<feGaussianBlur stdDeviation="5.5"/>
<feComposite in2="hardAlpha" operator="out"/>
<feColorMatrix type="matrix" values="0 0 0 0 0.992157 0 0 0 0 0.772549 0 0 0 0 0 0 0 0 0.45 0"/>
<feBlend mode="normal" in2="effect1_dropShadow_1_549" result="effect2_dropShadow_1_549"/>
<feBlend mode="normal" in="SourceGraphic" in2="effect2_dropShadow_1_549" result="shape"/>
<feColorMatrix in="SourceAlpha" type="matrix" values="0 0 0 0 0 0 0 0 0 0 0 0 0 0 0 0 0 0 127 0" result="hardAlpha"/>
<feOffset dx="-1" dy="3"/>
<feGaussianBlur stdDeviation="2.5"/>
<feComposite in2="hardAlpha" operator="arithmetic" k2="-1" k3="1"/>
<feColorMatrix type="matrix" values="0 0 0 0 1 0 0 0 0 0.9 0 0 0 0 0 0 0 0 0.35 0"/>
<feBlend mode="normal" in2="shape" result="effect3_innerShadow_1_549"/>
</filter>
<filter id="filter1_bi_1_549" x="-7" y="14" width="122" height="80" filterUnits="userSpaceOnUse" color-interpolation-filters="sRGB">
<feFlood flood-opacity="0" result="BackgroundImageFix"/>
<feGaussianBlur in="BackgroundImageFix" stdDeviation="3.5"/>
<feComposite in2="SourceAlpha" operator="in" result="effect1_backgroundBlur_1_549"/>
<feBlend mode="normal" in="SourceGraphic" in2="effect1_backgroundBlur_1_549" result="shape"/>
<feColorMatrix in="SourceAlpha" type="matrix" values="0 0 0 0 0 0 0 0 0 0 0 0 0 0 0 0 0 0 127 0" result="hardAlpha"/>
<feOffset dy="2"/>
<feGaussianBlur stdDeviation="4"/>
<feComposite in2="hardAlpha" operator="arithmetic" k2="-1" k3="1"/>
<feColorMatrix type="matrix" values="0 0 0 0 0 0 0 0 0 0.82 0 0 0 0 1 0 0 0 0.25 0"/>
<feBlend mode="normal" in2="shape" result="effect2_innerShadow_1_549"/>
</filter>
<linearGradient id="paint0_linear_1_549" x1="84" y1="16" x2="84" y2="68" gradientUnits="userSpaceOnUse">
<stop stop-color="#FDC500"/>
<stop offset="1" stop-color="#FD8900"/>
</linearGradient>
<linearGradient id="paint1_linear_1_549" x1="56" y1="110.5" x2="96.5" y2="21" gradientUnits="userSpaceOnUse">
<stop stop-color="#0082DF"/>
<stop offset="0.299998" stop-color="#48B2FF" stop-opacity="0.75"/>
<stop offset="1" stop-color="#3BADFF" stop-opacity="0"/>
</linearGradient>
<linearGradient id="paint2_linear_1_549" x1="54.0295" y1="65" x2="54.0295" y2="112.059" gradientUnits="userSpaceOnUse">
<stop stop-color="#D7F0FF"/>
<stop offset="1" stop-color="#0072DC"/>
</linearGradient>
</defs>
</svg>
