<svg width="104" height="68" viewBox="0 0 104 68" fill="none" xmlns="http://www.w3.org/2000/svg">
<path d="M69.9356 50.4888C66.85 50.6668 63.7604 50.2152 60.8563 49.1618C57.9522 48.1084 55.2949 46.4754 53.0471 44.363C50.7993 42.2505 49.0086 39.7031 47.7846 36.877C46.5607 34.0509 45.9293 31.0056 45.9293 27.9278C45.9293 24.8501 46.5607 21.8048 47.7846 18.9786C49.0086 16.1525 50.7993 13.6051 53.0471 11.4926C55.2949 9.38017 57.9522 7.74719 60.8563 6.6938C63.7604 5.64042 66.85 5.18886 69.9356 5.36677C71.8843 5.35225 73.8255 5.60661 75.7041 6.12258C70.077 2.08929 63.3063 -0.0548159 56.3733 0.0010652C49.4403 0.0569462 42.7053 2.3099 37.1445 6.43337C31.5837 10.5568 27.4861 16.3366 25.4456 22.9348C23.405 29.533 23.5276 36.6069 25.7955 43.1311C28.0634 49.6553 32.3589 55.2908 38.0592 59.2208C43.7596 63.1508 50.5686 65.171 57.4994 64.9887C64.4302 64.8063 71.1226 62.4309 76.6066 58.2067C82.0906 53.9825 86.0812 48.129 88 41.4947C85.9029 44.2938 83.1768 46.5652 80.0399 48.127C76.9031 49.6889 73.4427 50.4977 69.9356 50.4888Z" fill="url(#paint0_linear_306_62)"/>
<path d="M93 35C93 31.5522 91.8411 28.2456 89.7782 25.8076C87.7153 23.3696 84.9174 22 82 22C84.9174 22 87.7153 20.6304 89.7782 18.1924C91.8411 15.7544 93 12.4478 93 9C93 10.7072 93.2845 12.3976 93.8373 13.9749C94.3901 15.5521 95.2004 16.9852 96.2218 18.1924C97.2433 19.3996 98.4559 20.3571 99.7905 21.0104C101.125 21.6637 102.555 22 104 22C102.555 22 101.125 22.3363 99.7905 22.9896C98.4559 23.6429 97.2433 24.6005 96.2218 25.8076C95.2004 27.0148 94.3901 28.4479 93.8373 30.0251C93.2845 31.6024 93 33.2928 93 35Z" fill="url(#paint1_linear_306_62)"/>
<path d="M11 68C11 64.5522 9.84107 61.2456 7.77817 58.8076C5.71527 56.3696 2.91738 55 0 55C2.91738 55 5.71527 53.6304 7.77817 51.1924C9.84107 48.7544 11 45.4478 11 42C11 43.7072 11.2845 45.3976 11.8373 46.9749C12.3901 48.5521 13.2004 49.9852 14.2218 51.1924C15.2433 52.3996 16.4559 53.3571 17.7905 54.0104C19.1251 54.6637 20.5555 55 22 55C20.5555 55 19.1251 55.3363 17.7905 55.9896C16.4559 56.6429 15.2433 57.6005 14.2218 58.8076C13.2004 60.0148 12.3901 61.4479 11.8373 63.0251C11.2845 64.6024 11 66.2928 11 68Z" fill="url(#paint2_linear_306_62)"/>
<defs>
<linearGradient id="paint0_linear_306_62" x1="56" y1="0" x2="56" y2="65" gradientUnits="userSpaceOnUse">
<stop stop-color="#FDC500"/>
<stop offset="1" stop-color="#FD8900"/>
</linearGradient>
<linearGradient id="paint1_linear_306_62" x1="93" y1="9" x2="93" y2="35" gradientUnits="userSpaceOnUse">
<stop stop-color="#FDC500"/>
<stop offset="1" stop-color="#FD8900"/>
</linearGradient>
<linearGradient id="paint2_linear_306_62" x1="11" y1="42" x2="11" y2="68" gradientUnits="userSpaceOnUse">
<stop stop-color="#FDC500"/>
<stop offset="1" stop-color="#FD8900"/>
</linearGradient>
</defs>
</svg>
